<svg width="221" height="228" viewBox="0 0 221 228" fill="none" xmlns="http://www.w3.org/2000/svg">
<rect width="221" height="228" fill="#1E1E1E"/>
<rect width="221" height="228" fill="white"/>
<path d="M98.436 25.3C128.303 25.3 148.1 29.5667 157.828 38.1C166.703 45.78 171.14 57.6413 171.14 73.684C171.14 98.6013 158.169 115.583 132.228 124.628L169.092 180.18L191.108 182.484C191.108 189.823 189.145 197.161 185.22 204.5H148.1L97.924 127.956H89.732L88.964 180.18L107.652 182.228C107.652 189.225 105.689 196.649 101.764 204.5H38.532L36.228 190.42C46.468 186.324 53.636 183.849 57.732 182.996C57.3907 162.004 56.964 136.66 56.452 106.964C55.94 77.268 55.5987 57.3853 55.428 47.316L34.18 40.916C34.3507 36.9907 35.1187 31.7853 36.484 25.3H98.436ZM118.66 52.692C113.369 51.4973 106.287 50.9 97.412 50.9H90.244C89.9027 74.452 89.732 92.116 89.732 103.892L102.276 103.636C112.345 103.465 120.281 101.417 126.084 97.492C132.057 93.396 135.044 85.5453 135.044 73.94C135.044 62.3347 129.583 55.252 118.66 52.692Z" fill="black"/>
</svg>
